<?xml version="1.0" encoding="utf-8"?>
<!-- Generator: Adobe Illustrator 17.0.0, SVG Export Plug-In . SVG Version: 6.00 Build 0)  -->
<!DOCTYPE svg PUBLIC "-//W3C//DTD SVG 1.1//EN" "http://www.w3.org/Graphics/SVG/1.1/DTD/svg11.dtd">
<svg version="1.1" id="Layer_1" xmlns="http://www.w3.org/2000/svg" xmlns:xlink="http://www.w3.org/1999/xlink" x="0px" y="0px"
	 width="115px" height="330px" viewBox="0 0 115 330" enable-background="new 0 0 115 330" xml:space="preserve">
<g id="dMpe6p.tif">
	<g>
		<path fill="#CD201F" d="M112.717,322.573c0.407,0.998,1.956,1.33,1.644,2.752c-1.383,0.695-2.24-0.334-3.146-0.965
			c-35.359-24.63-64.1-55.002-81.521-94.974c-14.058-32.255-18.059-66.253-16.443-101.086c0.897-19.327,3.529-38.433,8.453-57.17
			c0.775-2.951-0.048-4.147-2.865-5.004c-5.246-1.597-10.349-3.657-15.569-5.348c-2.852-0.924-3.779-1.86-1.004-4.132
			C22.875,39.773,43.441,22.848,64.04,5.964c1.064-0.873,2.118-2.454,3.775-0.791c0.024,0.663-0.061,1.35,0.086,1.984
			c4.398,19.017,8.964,37.997,13.162,57.058c1.632,7.409,4.374,14.6,4.673,22.289c-5.319-1.639-10.638-3.279-15.956-4.918
			c-1.391-0.544-2.856-0.951-4.159-1.657c-4.132-2.241-5.809-0.708-7.471,3.464c-9.044,22.702-12.267,46.48-13.244,70.614
			c-0.754,18.625,1.008,37.189,3.992,55.562c3.407,20.979,10.278,40.828,20.534,59.54c7.396,13.493,16.095,26.044,26.274,37.492
			c4.195,4.719,7.868,10.311,14.154,12.846c0,0-0.065-0.011-0.064-0.011c0.35,0.35,0.699,0.7,1.049,1.05c0,0-0.052-0.05-0.052-0.05
			c0.351,0.352,0.702,0.703,1.052,1.055c0,0-0.054-0.054-0.054-0.054C112.099,321.815,112.408,322.194,112.717,322.573z"/>
		<path fill="#A51919" d="M109.859,319.447c-6.286-2.535-9.959-8.127-14.154-12.846c-10.179-11.449-18.878-23.999-26.274-37.492
			c-10.256-18.712-17.126-38.561-20.534-59.54c-2.984-18.373-4.747-36.937-3.992-55.562c0.977-24.134,4.2-47.912,13.244-70.614
			c1.662-4.172,3.339-5.705,7.471-3.464c1.303,0.707,2.769,1.113,4.159,1.657c-7.796,16.093-11.691,33.31-13.577,50.9
			c-4.255,39.695-1.853,78.858,11.543,116.832c8.686,24.624,21.932,46.618,39.166,66.226
			C107.982,316.762,109.512,317.669,109.859,319.447z"/>
		<path fill="#A51919" d="M85.735,86.504c-0.299-7.69-3.041-14.881-4.673-22.289c-4.198-19.061-8.764-38.041-13.162-57.058
			c-0.147-0.634-0.062-1.321-0.086-1.984c6.246,1.514,9.268,5.187,10.691,11.804c4.825,22.441,10.471,44.705,15.747,67.05
			c0.4,1.695,1.844,3.803,0.285,5.13c-1.265,1.076-3.089-0.564-4.657-0.987C88.453,87.785,87.114,87.072,85.735,86.504z"/>
		<path fill="#0583A3" d="M110.844,320.485c-0.35-0.35-0.699-0.7-1.049-1.05C110.528,319.402,110.85,319.78,110.844,320.485z"/>
		<path fill="#0583A3" d="M111.844,321.489c-0.351-0.352-0.701-0.703-1.052-1.055C111.505,320.425,111.83,320.802,111.844,321.489z"
			/>
		<path fill="#0583A3" d="M112.717,322.573c-0.309-0.379-0.618-0.758-0.928-1.137C112.494,321.492,112.867,321.82,112.717,322.573z"
			/>
	</g>
</g>
</svg>
